<svg width="24" height="24" viewBox="0 0 24 24" fill="none" xmlns="http://www.w3.org/2000/svg">
<path d="M18.6114 21.3782H5.5544C4.72539 21.3782 4 20.6528 4 19.8238V3.5544C4 2.72539 4.72539 2 5.5544 2H18.6114C19.4404 2 20.1658 2.72539 20.1658 3.5544V19.8238C20.1658 20.7564 19.4404 21.3782 18.6114 21.3782Z" stroke="#B8B8D2" stroke-width="2.07254" stroke-miterlimit="10"/>
<path d="M8.7668 9.87576C9.33911 9.87576 9.80307 9.41181 9.80307 8.83949C9.80307 8.26718 9.33911 7.80322 8.7668 7.80322C8.19448 7.80322 7.73053 8.26718 7.73053 8.83949C7.73053 9.41181 8.19448 9.87576 8.7668 9.87576Z" fill="#B8B8D2"/>
<path d="M11.6684 8.83936H15.9171" stroke="#B8B8D2" stroke-width="2.07254" stroke-miterlimit="10"/>
<path d="M8.7668 15.575C9.33911 15.575 9.80307 15.111 9.80307 14.5387C9.80307 13.9664 9.33911 13.5024 8.7668 13.5024C8.19448 13.5024 7.73053 13.9664 7.73053 14.5387C7.73053 15.111 8.19448 15.575 8.7668 15.575Z" fill="#B8B8D2"/>
<path d="M11.6684 14.5388H15.9171" stroke="#B8B8D2" stroke-width="2.07254" stroke-miterlimit="10"/>
</svg>
