<svg width="32" height="32" viewBox="0 0 32 32" fill="none" xmlns="http://www.w3.org/2000/svg">
<path d="M14.619 26.2801L14.147 29.4896C14.0526 30.3392 13.2974 30.9056 12.4479 30.9056H6.12313C5.27354 30.9056 4.61275 30.2448 4.42395 29.4896L3.00797 19.1058C2.91357 18.0674 3.66876 17.2178 4.70715 17.2178H12.1647" stroke="#6E6BE8" stroke-width="1.88798" stroke-miterlimit="10"/>
<path d="M4.61279 17.1236C4.61279 14.5748 6.68957 12.498 9.23834 12.498C11.7871 12.498 13.8639 14.5748 13.8639 17.1236" stroke="#6E6BE8" stroke-width="1.88798" stroke-miterlimit="10"/>
<path d="M18.4894 0.79248L21.2269 25.9026" stroke="#F7658B" stroke-width="1.88798" stroke-miterlimit="10"/>
<path d="M14.619 26.28H25.8525C26.2301 26.28 26.5133 26.4688 26.6077 26.752L27.9293 29.7728C28.2125 30.3392 27.7405 31 27.1741 31H13.9583L14.619 26.28Z" stroke="#6E6BE8" stroke-width="1.88798" stroke-miterlimit="10"/>
<path d="M14.4302 26.2801H12.1646C11.3151 26.2801 10.7487 25.6193 10.7487 24.8641V18.6338C10.7487 17.7842 11.4094 17.2178 12.1646 17.2178H14.4302C15.2798 17.2178 15.8462 17.8786 15.8462 18.6338V24.8641C15.8462 25.7137 15.1854 26.2801 14.4302 26.2801Z" stroke="#F3A8A2" stroke-width="1.88798" stroke-miterlimit="10"/>
</svg>
