<svg width="32" height="32" viewBox="0 0 32 32" fill="none" xmlns="http://www.w3.org/2000/svg">
<path d="M4.52441 17.2436L2.80522 14.2351C2.37542 13.5474 2.6333 12.6018 3.32098 12.258C4.00866 11.8282 4.86825 12.0861 5.29805 12.7737L7.79089 17.1577" stroke="#F7658B" stroke-width="1.7192" stroke-miterlimit="10"/>
<path d="M15.3552 16.5559C15.3552 14.063 17.4183 12 19.9111 12C22.4039 12 24.467 14.063 24.467 16.5559" stroke="#F7658B" stroke-width="1.7192" stroke-miterlimit="10"/>
<path d="M19.9111 17.1577V28.7623" stroke="#F3A8A2" stroke-width="1.7192" stroke-miterlimit="10"/>
<path d="M24.6389 17.1577V28.7623" stroke="#F3A8A2" stroke-width="1.7192" stroke-miterlimit="10"/>
<path d="M29.2808 23.0029H17.0745" stroke="#F3A8A2" stroke-width="1.7192" stroke-miterlimit="10"/>
<path d="M15.0114 17.1577H29.9685L28.5071 28.7623H13.2922" stroke="#F7658B" stroke-width="1.7192" stroke-miterlimit="10"/>
<path d="M10.7135 26.6133H8.82237C4.95418 26.6133 1.85962 23.5187 1.85962 19.6505V17.2437H17.6762V19.7365C17.6762 23.5187 14.5817 26.6133 10.7135 26.6133Z" stroke="#6E6BE8" stroke-width="1.7192" stroke-miterlimit="10"/>
<path d="M14.2378 25.7537V27.9886C14.2378 28.5044 13.808 28.9342 13.2922 28.9342H6.24353C5.72777 28.9342 5.29797 28.5044 5.29797 27.9886V25.7537" stroke="#6E6BE8" stroke-width="1.7192" stroke-miterlimit="10"/>
</svg>
