<svg width="24" height="24" viewBox="0 0 24 24" fill="none" xmlns="http://www.w3.org/2000/svg">
<path d="M13.0136 2.92912C12.4401 2.40343 11.5599 2.40343 10.9864 2.92912L2.48641 10.7208C2.17647 11.0049 2 11.4061 2 11.8265V20.6042C2 21.4326 2.67157 22.1042 3.5 22.1042H7.27083C8.09926 22.1042 8.77083 21.4326 8.77083 20.6042V15.3333C8.77083 13.5625 10.2292 12.1042 12 12.1042C13.7708 12.1042 15.2292 13.5625 15.2292 15.3333V20.6042C15.2292 21.4326 15.9007 22.1042 16.7292 22.1042H20.5C21.3284 22.1042 22 21.4326 22 20.6042V11.8265C22 11.4061 21.8235 11.0049 21.5136 10.7208L13.0136 2.92912Z" stroke="#B8B8D2" stroke-width="2.08333" stroke-miterlimit="10"/>
</svg>
