<svg width="32" height="32" viewBox="0 0 32 32" fill="none" xmlns="http://www.w3.org/2000/svg">
<path d="M18.3062 29.916H5.26125C3.41321 29.916 2 28.3941 2 26.6547V8.17433C2 6.32629 3.52191 4.91309 5.26125 4.91309H18.3062C20.1543 4.91309 21.5675 6.435 21.5675 8.17433V26.6547C21.5675 28.3941 20.1543 29.916 18.3062 29.916Z" stroke="#6E6BE8" stroke-width="2.17416" stroke-miterlimit="10"/>
<path d="M2 10.7837H21.5675" stroke="#6E6BE8" stroke-width="2.17416" stroke-miterlimit="10"/>
<path d="M11.7837 24.698C14.4854 24.698 16.6756 22.5079 16.6756 19.8062C16.6756 17.1045 14.4854 14.9143 11.7837 14.9143C9.08201 14.9143 6.89185 17.1045 6.89185 19.8062C6.89185 22.5079 9.08201 24.698 11.7837 24.698Z" stroke="#F7658B" stroke-width="2.17416" stroke-miterlimit="10"/>
<path d="M13.6318 8.82673C14.1121 8.82673 14.5014 8.43737 14.5014 7.95707C14.5014 7.47676 14.1121 7.0874 13.6318 7.0874C13.1514 7.0874 12.7621 7.47676 12.7621 7.95707C12.7621 8.43737 13.1514 8.82673 13.6318 8.82673Z" fill="#F3A8A2"/>
<path d="M17.3278 8.82673C17.8081 8.82673 18.1975 8.43737 18.1975 7.95707C18.1975 7.47676 17.8081 7.0874 17.3278 7.0874C16.8475 7.0874 16.4581 7.47676 16.4581 7.95707C16.4581 8.43737 16.8475 8.82673 17.3278 8.82673Z" fill="#F3A8A2"/>
<path d="M9.28333 4.91309V10.7833" stroke="#6E6BE8" stroke-width="2.17416" stroke-miterlimit="10"/>
<path d="M29.5031 25.5677H21.5674V21.4368H29.5031C30.264 21.4368 30.8076 21.9803 30.8076 22.7413V24.2632C30.9163 25.0241 30.264 25.5677 29.5031 25.5677Z" stroke="#6E6BE8" stroke-width="2.17416" stroke-miterlimit="10"/>
<path d="M21.5675 25.5679H29.5032C30.2641 25.5679 30.8077 26.1114 30.8077 26.8724V28.3943C30.8077 29.1552 30.2641 29.6988 29.5032 29.6988H19.1759" stroke="#6E6BE8" stroke-width="2.17416" stroke-miterlimit="10"/>
<path d="M29.5031 21.4368H21.5674V17.3059H29.5031C30.264 17.3059 30.8076 17.8494 30.8076 18.6104V20.1323C30.9163 20.8933 30.264 21.4368 29.5031 21.4368Z" stroke="#6E6BE8" stroke-width="2.17416" stroke-miterlimit="10"/>
</svg>
