<svg width="16" height="16" viewBox="0 0 16 16" fill="none" xmlns="http://www.w3.org/2000/svg">
<path d="M7.68314 8.34651C8.60179 8.34651 9.34651 7.60179 9.34651 6.68314C9.34651 5.76449 8.60179 5.01978 7.68314 5.01978C6.76449 5.01978 6.01978 5.76449 6.01978 6.68314C6.01978 7.60179 6.76449 8.34651 7.68314 8.34651Z" stroke="#F3A8A2" stroke-width="1.38614" stroke-miterlimit="10"/>
<path d="M12.604 6.68297C12.604 3.91069 10.3862 1.69287 7.61391 1.69287C4.84163 1.69287 2.69312 3.91069 2.69312 6.68297C2.69312 8.27703 3.5248 9.52455 4.5644 10.5642C5.46539 11.4651 7.68321 13.9602 7.68321 13.9602C7.68321 13.9602 9.83173 11.6038 10.802 10.5642C11.7723 9.52455 12.604 8.20772 12.604 6.68297Z" stroke="#6E6BE8" stroke-width="1.38614" stroke-miterlimit="10"/>
</svg>
