<svg width="24" height="24" viewBox="0 0 24 24" fill="none" xmlns="http://www.w3.org/2000/svg">
<path d="M12.1176 10.7823C14.6808 10.7823 16.7587 8.70435 16.7587 6.14113C16.7587 3.5779 14.6808 1.5 12.1176 1.5C9.55436 1.5 7.47646 3.5779 7.47646 6.14113C7.47646 8.70435 9.55436 10.7823 12.1176 10.7823Z" stroke="#F3A8A2" stroke-width="1.85645" stroke-miterlimit="10"/>
<path d="M12.1176 20.2499C17.13 20.2499 19.729 19.1361 19.729 19.1361C19.729 19.1361 19.9147 16.7227 18.2439 15.6088C16.5731 14.4949 12.1176 13.938 12.1176 13.938C12.1176 13.938 7.6621 14.3093 5.9913 15.6088C4.32049 16.9083 4.50614 19.1361 4.50614 19.1361C4.50614 19.1361 6.91952 20.2499 12.1176 20.2499Z" stroke="#6E6BE8" stroke-width="1.85645" stroke-miterlimit="10"/>
</svg>
