<svg width="32" height="32" viewBox="0 0 32 32" fill="none" xmlns="http://www.w3.org/2000/svg">
<path d="M22.1143 15.4285H9.88574C9.88574 11.9999 12.6286 9.25708 16.0572 9.25708C19.3715 9.25708 22.1143 11.9999 22.1143 15.4285Z" stroke="#6E6BE8" stroke-width="2.28571" stroke-miterlimit="10"/>
<path d="M11.7143 21.4857C12.4086 21.4857 12.9714 20.9229 12.9714 20.2286C12.9714 19.5343 12.4086 18.9714 11.7143 18.9714C11.02 18.9714 10.4572 19.5343 10.4572 20.2286C10.4572 20.9229 11.02 21.4857 11.7143 21.4857Z" fill="#F7658B"/>
<path d="M19.7143 25.943C20.4086 25.943 20.9714 25.3802 20.9714 24.6859C20.9714 23.9916 20.4086 23.4287 19.7143 23.4287C19.02 23.4287 18.4572 23.9916 18.4572 24.6859C18.4572 25.3802 19.02 25.943 19.7143 25.943Z" fill="#F7658B"/>
<path d="M20.6286 21.143C21.1335 21.143 21.5429 20.7337 21.5429 20.2287C21.5429 19.7238 21.1335 19.3145 20.6286 19.3145C20.1236 19.3145 19.7143 19.7238 19.7143 20.2287C19.7143 20.7337 20.1236 21.143 20.6286 21.143Z" fill="#F3A8A2"/>
<path d="M11.7143 25.6001C12.2192 25.6001 12.6286 25.1907 12.6286 24.6858C12.6286 24.1808 12.2192 23.7715 11.7143 23.7715C11.2093 23.7715 10.8 24.1808 10.8 24.6858C10.8 25.1907 11.2093 25.6001 11.7143 25.6001Z" fill="#F3A8A2"/>
<path d="M22.1143 15.3145C23.7143 16.9145 24.7429 19.2002 24.7429 21.6002C24.7429 26.5145 20.7429 30.4002 15.9429 30.4002C11.1429 30.4002 7.14288 26.5145 7.14288 21.6002C7.14288 19.2002 8.17145 16.9145 9.77145 15.3145" stroke="#6E6BE8" stroke-width="2.28571" stroke-miterlimit="10"/>
<path d="M15.9429 15.4287V30.4001" stroke="#6E6BE8" stroke-width="2.28571" stroke-miterlimit="10"/>
<path d="M15.9429 9.25711C15.9429 9.25711 15.1429 5.14282 11.7143 5.14282" stroke="#6E6BE8" stroke-width="2.28571" stroke-miterlimit="10"/>
<path d="M16.2857 9.25711C16.2857 9.25711 17.0857 5.14282 20.5143 5.14282" stroke="#6E6BE8" stroke-width="2.28571" stroke-miterlimit="10"/>
</svg>
