<svg width="32" height="32" viewBox="0 0 32 32" fill="none" xmlns="http://www.w3.org/2000/svg">
<path d="M13.315 18.5449L4.80499 10.1499" stroke="#F3A8A2" stroke-width="2.3" stroke-miterlimit="10"/>
<path d="M21.71 22.3398L25.505 26.1348C26.08 26.7098 26.08 27.7448 25.505 28.4348L23.55 30.3898C22.975 30.9648 21.94 30.9648 21.25 30.3898L15.5 24.6398" stroke="#F7658B" stroke-width="2.3" stroke-miterlimit="10"/>
<path d="M25.275 13.7151L22.86 16.1301C22.055 16.9351 20.675 16.9351 19.87 16.1301C19.065 15.3251 19.065 13.9451 19.87 13.1401L22.285 10.7251C19.985 9.57512 16.995 10.0351 15.155 11.8751C13.43 13.7151 12.97 16.1301 13.545 18.3151L6.3 25.5601C5.15 26.7101 5.15 28.5501 6.3 29.7001C7.45 30.8501 9.29 30.8501 10.44 29.7001L17.685 22.4551C19.87 23.1451 22.285 22.5701 24.01 20.9601C25.965 19.0051 26.425 16.1301 25.275 13.7151Z" stroke="#6E6BE8" stroke-width="2.3" stroke-miterlimit="10"/>
</svg>
